<?xml version="1.0" encoding="UTF-8"?>
<svg width="211px" height="55px" viewBox="0 0 211 55" version="1.1" xmlns="http://www.w3.org/2000/svg" xmlns:xlink="http://www.w3.org/1999/xlink">
    <!-- Generator: Sketch 58 (84663) - https://sketch.com -->
    <title>Combined Shape</title>
    <desc>Created with Sketch.</desc>
    <g id="Wireframes-V4" stroke="none" stroke-width="1" fill="none" fill-rule="evenodd">
        <g id="Wireframes-V2-LWCD" transform="translate(-114.000000, -34.000000)" fill="#006065" fill-rule="nonzero">
            <g id="T5F_Logo_RGB_Red" transform="translate(114.000000, 34.000000)">
                <path d="M210.932432,45.5608108 C210.932432,50.5992176 206.91503,54.7767525 201.840416,54.9217819 L201.567568,54.9256757 L149.689189,55 L149.689189,52.027027 L201.567568,51.9527027 C205.057579,51.9527027 207.836312,49.1787124 207.955477,45.7877644 L207.959459,45.5608108 L210.932432,45.5608108 Z M149.689189,49.0540541 L149.689189,52.027027 L146.195622,52.0266486 L146.195946,54.9256757 L75.9594595,54.9256757 L75.9594595,51.9527027 L146.121622,51.9526486 L146.121622,49.0540541 L149.689189,49.0540541 Z M3.34459459,45.4864865 C3.34459459,48.9764982 6.04745696,51.8263584 9.50489416,51.8790343 L9.73648649,51.8783784 L72.3166216,51.9526486 L72.3175676,49.0540541 L75.8851351,49.0540541 L75.8851351,52.027027 L72.3916216,52.0266486 L72.3918919,54.9256757 L9.73648649,54.8513514 C4.69807966,54.8513514 0.520544783,50.8339489 0.375515368,45.7593353 L0.371621622,45.4864865 L3.34459459,45.4864865 Z M160.391892,22.0743243 C165,22.0743243 168.493243,25.7162162 168.493243,30.6216216 C168.493243,35.527027 165,39.2432432 160.391892,39.2432432 C155.783784,39.2432432 152.290541,35.527027 152.290541,30.6216216 C152.290541,25.7162162 155.783784,22.0743243 160.391892,22.0743243 Z M178.601351,22.0743243 C183.209459,22.0743243 186.702703,25.7162162 186.702703,30.6216216 C186.702703,35.527027 183.209459,39.2432432 178.601351,39.2432432 C173.993243,39.2432432 170.5,35.527027 170.5,30.6216216 C170.5,25.7162162 173.993243,22.0743243 178.601351,22.0743243 Z M87.7027027,16.1283784 L87.7027027,19.472973 L75.5878378,19.472973 L75.5878378,26.8310811 L76.5540541,26.8310811 C77.222973,25.4932432 78.8581081,23.3378378 82.1283784,23.3378378 C86.0675676,23.3378378 88.7432432,26.3851351 88.7432432,30.9189189 C88.7432432,36.0472973 85.5472973,39.1689189 80.4932432,39.1689189 C76.3530405,39.1689189 73.4195716,36.9684045 72.7334021,33.6079415 L72.6891892,33.3716216 L72.6148649,33.1486486 L76.1081081,33.1486486 L76.1081081,33.2972973 C76.4054054,35.6013514 77.7432432,36.1216216 80.4932432,36.1216216 C83.3812741,36.1216216 84.9366851,35.3501048 85.159476,32.7850619 L85.1756757,32.5540541 L85.1756757,29.8783784 C85.1756757,27.3513514 83.5405405,26.3108108 81.9054054,26.3108108 C79.7525629,26.3108108 78.7083106,27.2115403 78.638853,29.079897 L78.6351351,29.2837838 L78.6351351,29.5067568 L72.4662162,29.5067568 L72.4662162,16.1283784 L87.7027027,16.1283784 Z M53.9594595,22 C58.1160122,22 61.4140119,25.5057585 61.536985,29.9902136 L61.5405405,30.25 L61.5405405,31.5135135 L49.7972973,31.5135135 L49.7972973,32.3310811 C49.7972973,35.0810811 51.0608108,36.1959459 53.9594595,36.1959459 C56.4022523,36.1959459 57.456006,35.5014264 57.7249527,33.776703 L57.75,33.5945946 L61.5405405,33.5945946 C60.5743243,36.7905405 57.3783784,39.1689189 53.9594595,39.1689189 C49.4256757,39.1689189 45.9324324,35.75 45.9324324,30.8445946 C45.9324324,25.9391892 49.277027,22 53.9594595,22 Z M96.5472973,16.277027 L96.5472973,22.3716216 L101.006757,22.3716216 L101.006757,25.2702703 L96.5472973,25.2702703 L96.5472973,34.1891892 C96.5472973,35.3040541 97.1418919,35.8243243 98.1824324,35.8243243 L98.1824324,35.8243243 L100.709459,35.8243243 L100.709459,39.0202703 L98.4054054,39.0202703 C95.1351351,39.0202703 93.0540541,37.0878378 93.0540541,34.0405405 L93.0540541,34.0405405 L93.0540541,25.3445946 L89.6351351,25.3445946 L89.6351351,22.3716216 L93.0540541,22.3716216 L93.0540541,16.277027 L96.5472973,16.277027 Z M31.8851351,16.277027 L31.8851351,25.4932432 L33.1486486,25.4932432 C34.2635135,23.3378378 36.1216216,22.0743243 38.277027,22.0743243 C41.3225115,22.0743243 43.5898235,24.2673561 43.6986123,27.4111044 L43.7027027,27.6486486 L43.7027027,38.8716216 L40.1351351,38.8716216 L40.1351351,27.6486486 C40.1351351,26.0878378 39.2432432,25.1216216 37.9054054,25.1216216 C36.3984157,25.1216216 34.822139,25.7452036 34.7152222,27.5944467 L34.7094595,27.7972973 L31.8851351,27.7972973 L31.8851351,38.8716216 L28.3175676,38.8716216 L28.3175676,16.277027 L31.8851351,16.277027 Z M107.324324,16.277027 L107.324324,25.4932432 L108.513514,25.4932432 C109.587087,23.4176677 111.349868,22.1691414 113.403649,22.0795051 L113.641892,22.0743243 L113.868823,22.0784168 C116.799393,22.1845701 118.957408,24.3459498 119.063477,27.4111044 L119.067568,27.6486486 L119.067568,38.8716216 L115.574324,38.8716216 L115.574324,27.6486486 C115.574324,26.0878378 114.682432,25.1216216 113.344595,25.1216216 C111.837605,25.1216216 110.261328,25.7452036 110.154411,27.5944467 L110.148649,27.7972973 L107.324324,27.7972973 L107.324324,38.8716216 L103.756757,38.8716216 L103.756757,16.277027 L107.324324,16.277027 Z M200.675676,22 L200.675676,26.1621622 L198.743243,26.1621622 C196.873147,26.1621622 196.04715,26.8582276 195.995805,29.193415 L195.993243,29.4324324 L192.871622,29.4324324 L192.871622,38.8716216 L189.601351,38.8716216 L189.601351,22.3716216 L192.871622,22.3716216 L192.871622,26.5337838 L194.135135,26.5337838 C194.581081,25.1216216 196.141892,22 200.675676,22 Z M149.689189,16.277027 L149.689189,38.8716216 L146.121622,38.8716216 L146.121622,16.277027 L149.689189,16.277027 Z M26.0878378,16.277027 L26.0878378,19.6216216 L19.6959459,19.6216216 L19.6959459,38.8716216 L16.0540541,38.8716216 L16.0540541,19.6216216 L9.66216216,19.6216216 L9.66216216,16.277027 L26.0878378,16.277027 Z M144.114865,16.277027 L144.114865,19.5472973 L134.527027,19.5472973 L134.527027,27.722973 L135.864865,27.722973 C136.300676,26.3429054 137.801252,23.3301981 142.100869,23.1939697 L142.405405,23.1891892 L142.405405,27.3513514 L140.472973,27.3513514 C138.602877,27.3513514 137.776879,28.0474168 137.725535,30.3826042 L137.722973,30.6216216 L134.601351,30.6216216 L134.601351,38.8716216 L130.959459,38.8716216 L130.959459,16.277027 L144.114865,16.277027 Z M160.391892,25.1216216 C157.501502,25.1216216 156.22692,26.3159149 156.15834,29.0460068 L156.155405,29.2837838 L156.155405,31.9594595 C156.155405,34.9324324 157.493243,36.1959459 160.391892,36.1959459 C163.282282,36.1959459 164.556864,35.0016527 164.625444,32.2032597 L164.628378,31.9594595 L164.628378,29.2837838 C164.628378,26.3851351 163.364865,25.1216216 160.391892,25.1216216 Z M178.601351,25.1216216 C175.710961,25.1216216 174.436379,26.3159149 174.367799,29.0460068 L174.364865,29.2837838 L174.364865,31.9594595 C174.364865,34.9324324 175.702703,36.1959459 178.601351,36.1959459 C181.491742,36.1959459 182.766324,35.0016527 182.834903,32.2032597 L182.837838,31.9594595 L182.837838,29.2837838 C182.837838,26.3851351 181.5,25.1216216 178.601351,25.1216216 Z M53.8851351,24.8986486 C51.0717409,24.8986486 49.7286952,25.9488976 49.6521262,28.3891821 L49.6486486,28.6148649 L49.6486486,28.9864865 L57.6756757,28.9864865 L57.6756757,28.6148649 C57.6756757,25.9391892 56.6351351,24.8986486 53.8851351,24.8986486 Z M130.885135,0.222972973 L201.567568,0.297297297 C206.605974,0.297297297 210.783509,4.31469974 210.928539,9.38931335 L210.932432,9.66216216 L207.959459,9.66216216 C207.959459,6.17215041 205.185469,3.32229027 201.794521,3.20003265 L201.567568,3.19594595 L130.885135,3.12162162 L130.885135,0.222972973 Z M57.8986486,0.148648649 L57.8986486,3.12162162 L9.73648649,3.19594595 C6.24647474,3.19594595 3.46774255,5.96993626 3.34857745,9.3608843 L3.34459459,9.58783784 L0.371621622,9.58783784 C0.371621622,4.54943101 4.38902407,0.371896134 9.46363768,0.226866719 L9.73648649,0.222972973 L57.8986486,0.148648649 Z M61.3918919,3.12162162 L61.3918919,6.09459459 L57.8986486,6.09459459 L57.8986486,3.12162162 L61.3918919,3.12162162 Z M130.885135,3.12162162 L130.885135,6.09459459 L127.391892,6.09459459 L127.391892,3.12162162 L130.885135,3.12162162 Z M127.317568,0.148648649 L127.317568,3.12162162 L61.3918919,3.12162162 L61.3918919,0.148648649 L127.317568,0.148648649 Z" id="Combined-Shape"></path>
            </g>
        </g>
    </g>
</svg>
